<?xml version="1.0" encoding="UTF-8" standalone="no"?>
<!-- Created with Inkscape (http://www.inkscape.org/) -->

<svg
   width="438mm"
   height="78mm"
   viewBox="0 0 438 78"
   version="1.1"
   id="svg1"
   inkscape:version="1.3.2 (091e20e, 2023-11-25)"
   sodipodi:docname="PitchGridLogo-Plugin.svg"
   xmlns:inkscape="http://www.inkscape.org/namespaces/inkscape"
   xmlns:sodipodi="http://sodipodi.sourceforge.net/DTD/sodipodi-0.dtd"
   xmlns="http://www.w3.org/2000/svg"
   xmlns:svg="http://www.w3.org/2000/svg">
  <sodipodi:namedview
     id="namedview1"
     pagecolor="#ffffff"
     bordercolor="#000000"
     borderopacity="0.25"
     inkscape:showpageshadow="2"
     inkscape:pageopacity="0.0"
     inkscape:pagecheckerboard="0"
     inkscape:deskcolor="#d1d1d1"
     inkscape:document-units="mm"
     inkscape:zoom="0.23422033"
     inkscape:cx="625.47944"
     inkscape:cy="-172.91411"
     inkscape:window-width="1512"
     inkscape:window-height="916"
     inkscape:window-x="0"
     inkscape:window-y="38"
     inkscape:window-maximized="0"
     inkscape:current-layer="layer2"
     showguides="true">
    <sodipodi:guide
       position="108.58669,2.3395945"
       orientation="0,-1"
       id="guide1"
       inkscape:locked="false" />
    <sodipodi:guide
       position="114.89173,60.836294"
       orientation="0,-1"
       id="guide2"
       inkscape:locked="false" />
  </sodipodi:namedview>
  <defs
     id="defs1">
    <inkscape:path-effect
       effect="fillet_chamfer"
       id="path-effect5"
       is_visible="true"
       lpeversion="1"
       nodesatellites_param="F,0,0,1,0,0,0,1 @ F,0,0,1,0,0,0,1 @ F,0,0,1,0,0,0,1 @ F,0,0,1,0,0,0,1 @ F,0,0,1,0,0,0,1 @ F,0,0,1,0,0,0,1"
       radius="0"
       unit="px"
       method="auto"
       mode="F"
       chamfer_steps="1"
       flexible="false"
       use_knot_distance="true"
       apply_no_radius="true"
       apply_with_radius="true"
       only_selected="false"
       hide_knots="false" />
    <inkscape:path-effect
       effect="fillet_chamfer"
       id="path-effect4"
       is_visible="true"
       lpeversion="1"
       nodesatellites_param="F,0,0,1,0,0,0,1 @ F,0,0,1,0,0,0,1 @ F,0,0,1,0,0,0,1 @ F,0,0,1,0,0,0,1 @ F,0,0,1,0,0,0,1 @ F,0,0,1,0,0,0,1"
       radius="0"
       unit="px"
       method="auto"
       mode="F"
       chamfer_steps="1"
       flexible="false"
       use_knot_distance="true"
       apply_no_radius="true"
       apply_with_radius="true"
       only_selected="false"
       hide_knots="false" />
    <inkscape:path-effect
       effect="fillet_chamfer"
       id="path-effect3"
       is_visible="true"
       lpeversion="1"
       nodesatellites_param="F,0,0,1,0,0,0,1 @ F,0,0,1,0,0,0,1 @ F,0,0,1,0,0,0,1 @ F,0,0,1,0,0,0,1 @ F,0,0,1,0,0,0,1 @ F,0,0,1,0,0,0,1"
       radius="0"
       unit="px"
       method="auto"
       mode="F"
       chamfer_steps="1"
       flexible="false"
       use_knot_distance="true"
       apply_no_radius="true"
       apply_with_radius="true"
       only_selected="false"
       hide_knots="false" />
    <inkscape:path-effect
       effect="fillet_chamfer"
       id="path-effect5-7"
       is_visible="true"
       lpeversion="1"
       nodesatellites_param="F,0,0,1,0,0,0,1 @ F,0,0,1,0,0,0,1 @ F,0,0,1,0,0,0,1 @ F,0,0,1,0,0,0,1 @ F,0,0,1,0,0,0,1 @ F,0,0,1,0,0,0,1"
       radius="0"
       unit="px"
       method="auto"
       mode="F"
       chamfer_steps="1"
       flexible="false"
       use_knot_distance="true"
       apply_no_radius="true"
       apply_with_radius="true"
       only_selected="false"
       hide_knots="false" />
    <inkscape:path-effect
       effect="fillet_chamfer"
       id="path-effect5-70"
       is_visible="true"
       lpeversion="1"
       nodesatellites_param="F,0,0,1,0,0,0,1 @ F,0,0,1,0,0,0,1 @ F,0,0,1,0,0,0,1 @ F,0,0,1,0,0,0,1 @ F,0,0,1,0,0,0,1 @ F,0,0,1,0,0,0,1"
       radius="0"
       unit="px"
       method="auto"
       mode="F"
       chamfer_steps="1"
       flexible="false"
       use_knot_distance="true"
       apply_no_radius="true"
       apply_with_radius="true"
       only_selected="false"
       hide_knots="false" />
    <inkscape:path-effect
       effect="fillet_chamfer"
       id="path-effect5-7-3"
       is_visible="true"
       lpeversion="1"
       nodesatellites_param="F,0,0,1,0,0,0,1 @ F,0,0,1,0,0,0,1 @ F,0,0,1,0,0,0,1 @ F,0,0,1,0,0,0,1 @ F,0,0,1,0,0,0,1 @ F,0,0,1,0,0,0,1"
       radius="0"
       unit="px"
       method="auto"
       mode="F"
       chamfer_steps="1"
       flexible="false"
       use_knot_distance="true"
       apply_no_radius="true"
       apply_with_radius="true"
       only_selected="false"
       hide_knots="false" />
    <inkscape:path-effect
       effect="fillet_chamfer"
       id="path-effect5-7-3-6"
       is_visible="true"
       lpeversion="1"
       nodesatellites_param="F,0,0,1,0,0,0,1 @ F,0,0,1,0,0,0,1 @ F,0,0,1,0,0,0,1 @ F,0,0,1,0,0,0,1 @ F,0,0,1,0,0,0,1 @ F,0,0,1,0,0,0,1"
       radius="0"
       unit="px"
       method="auto"
       mode="F"
       chamfer_steps="1"
       flexible="false"
       use_knot_distance="true"
       apply_no_radius="true"
       apply_with_radius="true"
       only_selected="false"
       hide_knots="false" />
    <inkscape:path-effect
       effect="fillet_chamfer"
       id="path-effect5-70-2"
       is_visible="true"
       lpeversion="1"
       nodesatellites_param="F,0,0,1,0,0,0,1 @ F,0,0,1,0,0,0,1 @ F,0,0,1,0,0,0,1 @ F,0,0,1,0,0,0,1 @ F,0,0,1,0,0,0,1 @ F,0,0,1,0,0,0,1"
       radius="0"
       unit="px"
       method="auto"
       mode="F"
       chamfer_steps="1"
       flexible="false"
       use_knot_distance="true"
       apply_no_radius="true"
       apply_with_radius="true"
       only_selected="false"
       hide_knots="false" />
  </defs>
  <g
     inkscape:groupmode="layer"
     id="layer2"
     inkscape:label="BG Rectangle">
    <path
       id="rect5"
       style="fill:#ffab00;fill-opacity:1;fill-rule:nonzero;stroke-width:0.287725"
       d="M 0.198954,0 C 0.08867,0 0,0.08867 0,0.19895397 V 75.455867 c 0,0.11028 0.08867,0.19895 0.198954,0.19895 h 16.182991 c -0.794617,-0.51705 -1.546192,-1.09236 -2.200899,-1.79524 -1.825849,-1.92085 -1.838924,-4.74362 -1.783354,-7.22488 0.186087,-2.74659 -0.316953,-5.56928 0.47284,-8.25169 0.691632,-2.53496 3.064195,-4.03034 5.241024,-5.194 2.67347,-1.30355 5.087418,-3.39238 8.072892,-3.90777 -0.809812,-1.706334 -0.833619,-3.760294 -0.790133,-5.624987 0.196016,-2.809159 -0.332575,-5.700344 0.492477,-8.441862 0.06203,-0.218365 0.140678,-0.426358 0.226342,-0.629419 -1.899225,-0.285837 -3.660063,-1.409915 -5.291666,-2.372982 -2.229359,-1.452311 -4.831348,-2.431782 -6.659542,-4.429704 -1.759446,-1.860481 -1.821214,-4.581963 -1.764234,-6.98872 0.184631,-2.806574 -0.315491,-5.68697 0.461471,-8.433077 0.699735,-2.57763 3.123497,-4.079958 5.333525,-5.258594 2.839505,-1.395746 5.39164,-3.673485 8.66252,-3.957381 0.117927,-0.005 0.235746,-0.006 0.353467,-0.0036 0.824039,0.01674 1.640141,0.208522 2.408121,0.504362 2.680905,1.278871 5.227783,2.834629 7.759213,4.388363 1.08633,0.544375 2.0727,1.326098 2.81895,2.285649 1.07117,-1.379668 2.68681,-2.357448 4.20801,-3.1719 0.0294,-0.01437 0.058,-0.03143 0.0873,-0.04599 L 40.493609,2e-5 Z m 44.248975,0 3.03806,5.397603 c 1.77155,-1.062953 3.57022,-2.068965 5.66787,-2.253092 0.93005,-0.03704 1.85628,0.155081 2.72283,0.486275 2.66663,1.262694 5.19585,2.808174 7.70909,4.352706 1.98227,0.982046 3.66412,2.72814 4.16202,4.930448 0.40284,2.792268 0.21772,5.634108 0.20412,8.447547 0.07,1.604085 -0.0404,3.303795 -0.66611,4.792989 0.57974,0.08506 1.15057,0.236202 1.69447,0.451135 2.29861,1.106252 4.49341,2.421816 6.67453,3.749125 V 0.19895397 C 75.654809,0.088671 75.565609,0 75.455339,0 Z M 27.127543,6.308659 c -1.323967,-0.0077 -2.652814,0.874137 -5.745386,2.636014 -6.185143,3.523759 -5.746473,2.774418 -5.78776,9.893453 -0.04129,7.119043 -0.471333,6.3638 5.672522,9.959082 5.629543,3.294316 5.434396,3.529725 10.109972,0.841293 l -3.292818,-5.851839 a 4.9999999,5 0 0 1 -1.029394,0.117822 4.9999999,5 0 0 1 -5.000212,-5.000212 4.9999999,5 0 0 1 5.000212,-4.999695 4.9999999,5 0 0 1 4.661212,3.295406 l 6.814568,-0.0031 c 0.0471,-5.181461 -0.13031,-4.933268 -5.688018,-8.185547 C 29.77051,7.213694 28.451508,6.316341 27.127543,6.308659 Z m 26.298646,0 c -1.10037,-0.0064 -2.26672,0.638132 -4.38371,1.855184 l 3.33933,5.934004 a 4.9999999,5 0 0 1 0.971,-0.19327 4.9999999,5 0 0 1 5.00022,4.999695 4.9999999,5 0 0 1 -5.00022,5.000212 4.9999999,5 0 0 1 -4.65501,-3.266467 l -6.82077,0.0036 c -0.0462,5.153149 0.14005,4.908989 5.68802,8.155574 6.14386,3.595282 5.27514,3.590421 11.46029,0.06666 6.18514,-3.523758 5.74647,-2.773894 5.78776,-9.892936 0.0413,-7.119037 0.47133,-6.364318 -5.67253,-9.959599 -3.07192,-1.797642 -4.39041,-2.694995 -5.71438,-2.702677 z m -7.37887,3.559989 c -3.98932,2.257877 -4.14047,2.605314 -4.15014,7.326685 l 6.797,-0.0036 a 4.9999999,5 0 0 1 0.75758,-1.274341 z m -7.53701,10.774536 -6.777358,0.0031 a 4.9999999,5 0 0 1 -0.72192,1.314131 l 3.361028,5.972762 c 3.9709,-2.247729 4.12821,-2.59957 4.13825,-7.289993 z m 1.61644,8.600509 c -1.04947,-0.0061 -2.14192,0.57028 -4.07365,1.677417 l 3.39824,6.038391 a 4.9999999,5 0 0 1 0.60203,-0.119889 4.9999999,5 0 0 1 5.00021,5.000211 4.9999999,5 0 0 1 -1.10329,2.99413 l 3.40186,6.045114 c 4.43041,-2.507304 4.12436,-2.569564 4.1615,-8.973098 0.0413,-7.11904 0.47133,-6.363801 -5.67252,-9.959082 -3.07193,-1.797641 -4.39041,-2.695514 -5.71438,-2.703194 z m 26.29813,0 c -1.32395,-0.0077 -2.65332,0.874653 -5.7459,2.636531 -6.18514,3.523759 -5.74647,2.773897 -5.78776,9.892937 -0.0413,7.119032 -0.47133,6.364312 5.67252,9.959606 6.14386,3.59527 5.27566,3.59042 11.4608,0.0667 6.18515,-3.523764 5.74647,-2.774424 5.78776,-9.893458 0.0413,-7.11904 0.47083,-6.363801 -5.67304,-9.959082 -3.07191,-1.797641 -4.39041,-2.695514 -5.71438,-2.703194 z m -33.365398,3.384289 c -4.730087,2.669383 -4.428477,2.607489 -4.466395,9.145179 -0.04129,7.119032 -0.471335,6.364312 5.672523,9.959606 5.62266,3.29028 5.43406,3.52954 10.09189,0.85162 l -3.34088,-5.936074 a 4.9999999,5 0 0 1 -0.96325,0.1912 4.9999999,5 0 0 1 -4.9997,-4.99969 4.9999999,5 0 0 1 1.32085,-3.320727 z m 33.292018,4.21163 a 4.9999999,5 0 0 1 5.00022,5.000211 4.9999999,5 0 0 1 -5.00022,4.99969 4.9999999,5 0 0 1 -4.99969,-4.99969 4.9999999,5 0 0 1 4.99969,-5.000211 z M 27.127543,52.354427 c -1.323967,-0.008 -2.652814,0.87465 -5.745386,2.63654 -6.185143,3.52375 -5.746473,2.7739 -5.78776,9.89293 -0.04129,7.11904 -0.471333,6.36432 5.672522,9.9596 5.606524,3.28085 5.433054,3.52925 10.049512,0.87592 l -3.304188,-5.872 a 4.9999999,5 0 0 1 -0.957564,0.10336 4.9999999,5 0 0 1 -5.000212,-5.00022 4.9999999,5 0 0 1 5.000212,-5.00021 4.9999999,5 0 0 1 4.714962,3.36776 l 6.760308,-0.003 c 0.0492,-5.25084 -0.10607,-4.99122 -5.687508,-8.25738 -3.071931,-1.79764 -4.390933,-2.69552 -5.714898,-2.7032 z m 26.298646,0 c -1.07755,-0.006 -2.21233,0.6084 -4.2447,1.77561 l 3.36569,5.98051 a 4.9999999,5 0 0 1 0.80563,-0.1602 4.9999999,5 0 0 1 5.00022,5.00021 4.9999999,5 0 0 1 -5.00022,5.00022 4.9999999,5 0 0 1 -4.64054,-3.19464 l -6.83576,0.003 c -0.0439,5.08489 0.1643,4.85157 5.68854,8.08426 6.14386,3.59529 5.27514,3.59042 11.46029,0.0667 6.18514,-3.52375 5.74647,-2.7739 5.78776,-9.89293 0.0413,-7.11905 0.47133,-6.36433 -5.67253,-9.9596 -3.07192,-1.79764 -4.39041,-2.69552 -5.71438,-2.7032 z m 22.22862,1.01493 c -0.48459,0.27599 -0.96958,0.54813 -1.44022,0.83096 -2.27626,1.18227 -4.41005,2.87682 -6.99389,3.3047 0.19934,0.39448 0.36142,0.80905 0.47439,1.24489 0.47545,2.7869 0.26793,5.63893 0.25993,8.45478 0.0775,2.19941 -0.0749,4.5876 -1.47588,6.39754 -0.69177,0.8232 -1.53857,1.47301 -2.43912,2.05259 h 11.41532 c 0.11028,0 0.19947,-0.0887 0.19947,-0.19895 z m -29.46745,2.46652 c -4.13559,2.33688 -4.28121,2.63956 -4.29018,7.47757 l 6.78202,-0.003 a 4.9999999,5 0 0 1 0.87178,-1.49655 z m -7.67757,10.92543 -6.801648,0.003 a 4.9999999,5 0 0 1 -0.74569,1.29759 l 3.349148,5.95158 c 4.00597,-2.26585 4.18708,-2.60478 4.19819,-7.25227 z m 1.71049,6.78821 c -0.0646,0.0866 -0.12949,0.17306 -0.19947,0.25683 -0.66974,0.73072 -1.46309,1.31566 -2.29598,1.84847 h 4.9537 c -0.80567,-0.52466 -1.56615,-1.10984 -2.2226,-1.83193 -0.0836,-0.0886 -0.15957,-0.181 -0.23565,-0.27337 z" />
    <path
       d="m 123.8252,35.529047 q 0,4.880445 -1.48895,8.437379 -1.48895,3.556934 -3.97053,5.873077 -2.48158,2.316143 -5.62492,3.474215 -3.14334,1.075352 -6.36939,1.075352 h -5.70764 V 75.730675 H 87.676822 V 17.165341 h 18.198268 q 3.14334,0 6.28667,0.909913 3.22606,0.909913 5.79036,3.060618 2.64702,2.067985 4.21869,5.624919 1.65439,3.556934 1.65439,8.768256 z m -12.40791,0.248158 q 0,-3.970531 -1.90255,-5.707638 -1.90254,-1.737108 -4.63228,-1.737108 h -4.21869 v 15.303089 h 4.21869 q 2.72974,0 4.63228,-1.985265 1.90255,-2.067985 1.90255,-5.873078 z"
       id="text1"
       style="font-weight:bold;font-stretch:condensed;font-size:82.7194px;font-family:'Avenir Next Condensed';-inkscape-font-specification:'Avenir Next Condensed,  Bold Condensed';fill:#ffffff;stroke-width:0.70344"
       aria-label="P" />
    <path
       d="M 130.8563,75.730675 V 17.165341 h 13.31782 v 58.565334 z"
       id="text11"
       style="font-weight:bold;font-stretch:condensed;font-size:82.7194px;font-family:'Avenir Next Condensed';-inkscape-font-specification:'Avenir Next Condensed,  Bold Condensed';fill:#ffffff;stroke-width:0.70344"
       aria-label="I" />
    <path
       d="M 173.04325,28.415179 V 75.730675 H 160.0563 V 28.415179 H 149.30278 V 17.165341 h 34.49399 v 11.249838 z"
       id="text12"
       style="font-weight:bold;font-stretch:condensed;font-size:82.7194px;font-family:'Avenir Next Condensed';-inkscape-font-specification:'Avenir Next Condensed,  Bold Condensed';fill:#ffffff;stroke-width:0.70344"
       aria-label="T" />
    <path
       d="m 224.49485,69.361281 q -2.39886,3.391495 -6.28667,5.707639 -3.88781,2.233423 -9.92633,2.233423 -5.1286,0 -9.34729,-2.233423 -4.13597,-2.316144 -7.11387,-6.369394 -2.9779,-4.13597 -4.63228,-9.760889 -1.65439,-5.707639 -1.65439,-12.490629 0,-6.86571 1.65439,-12.573349 1.65438,-5.707638 4.63228,-9.760889 2.9779,-4.05325 7.11387,-6.286674 4.21869,-2.233424 9.34729,-2.233424 5.87308,0 9.76089,2.150704 3.97053,2.067985 6.36939,5.211323 l -7.11386,9.59545 q -1.48895,-1.985266 -3.3915,-3.143337 -1.81983,-1.158072 -4.63229,-1.158072 -2.64702,0 -4.63228,1.40623 -1.90255,1.40623 -3.30878,3.887812 -1.32351,2.398862 -1.98526,5.790357 -0.66176,3.308776 -0.66176,7.113869 0,3.805092 0.66176,7.113868 0.66175,3.308776 1.98526,5.790358 1.40623,2.481582 3.3915,3.887812 1.98526,1.406229 4.63228,1.406229 2.64702,0 4.63229,-1.32351 1.98527,-1.32351 3.14334,-3.143337 l 7.36202,9.181853 z"
       id="text13"
       style="font-weight:bold;font-stretch:condensed;font-size:82.7194px;font-family:'Avenir Next Condensed';-inkscape-font-specification:'Avenir Next Condensed,  Bold Condensed';fill:#ffffff;stroke-width:0.70344"
       aria-label="C" />
    <path
       d="M 257.08623,75.730675 V 51.245733 h -13.6487 V 75.730675 H 230.28514 V 17.165341 h 13.15239 v 22.251518 h 13.6487 V 17.165341 h 13.15238 v 58.565334 z"
       id="text14"
       style="font-weight:bold;font-stretch:condensed;font-size:82.7194px;font-family:'Avenir Next Condensed';-inkscape-font-specification:'Avenir Next Condensed,  Bold Condensed';fill:#ffffff;stroke-width:0.70344"
       aria-label="H" />
    <path
       d="m 317.88491,72.25646 q -2.81246,2.150704 -6.78299,3.474215 -3.97053,1.32351 -9.34729,1.32351 -5.5422,0 -9.92633,-2.233424 -4.30141,-2.233423 -7.36203,-6.203955 -2.97789,-4.05325 -4.63228,-9.678169 -1.57167,-5.624919 -1.57167,-12.490629 0,-6.86571 1.57167,-12.490629 1.65439,-5.707639 4.63228,-9.76089 2.9779,-4.135969 7.11387,-6.369393 4.21869,-2.233424 9.34729,-2.233424 5.9558,0 9.92633,2.067985 4.05325,1.985266 6.3694,5.045883 l -7.19659,9.67817 q -2.9779,-4.13597 -8.1065,-4.13597 -2.72974,0 -4.71501,1.488949 -1.98526,1.40623 -3.30877,3.887812 -1.32351,2.481582 -1.98527,5.790358 -0.57904,3.308776 -0.57904,7.031149 0,3.722373 0.57904,7.031149 0.57904,3.308775 1.81983,5.790357 1.32351,2.481582 3.22605,3.970532 1.98527,1.488949 4.71501,1.488949 2.9779,0 4.63229,-1.240791 V 52.569243 h -6.28668 V 41.071247 h 17.86739 V 72.25646 Z"
       id="text15"
       style="font-weight:bold;font-stretch:condensed;font-size:82.7194px;font-family:'Avenir Next Condensed';-inkscape-font-specification:'Avenir Next Condensed,  Bold Condensed';fill:#ffab00;stroke-width:0.70344"
       aria-label="G" />
    <path
       d="m 351.46897,75.730675 -7.85834,-23.326871 h -3.88782 V 75.730675 H 326.98403 V 17.165341 h 18.7773 q 8.5201,0 13.2351,4.466847 4.71501,4.384128 4.71501,13.152384 0,3.226057 -0.74447,5.790358 -0.74448,2.564302 -1.98527,4.384129 -1.15807,1.819826 -2.64702,2.977898 -1.48895,1.158071 -2.89518,1.654388 l 10.00905,26.13933 z m -0.82719,-40.201628 q 0,-2.233424 -0.66176,-3.639653 -0.57904,-1.40623 -1.57167,-2.233424 -0.99263,-0.827194 -2.23342,-1.075352 -1.15807,-0.330878 -2.31615,-0.330878 h -4.13597 v 14.806772 h 3.88782 q 2.81246,0 4.88044,-1.737107 2.15071,-1.819827 2.15071,-5.790358 z"
       id="text16"
       style="font-weight:bold;font-stretch:condensed;font-size:82.7194px;font-family:'Avenir Next Condensed';-inkscape-font-specification:'Avenir Next Condensed,  Bold Condensed';fill:#ffab00;stroke-width:0.70344"
       aria-label="R" />
    <path
       d="M 371.73522,75.730675 V 17.165341 h 13.31782 v 58.565334 z"
       id="text17"
       style="font-weight:bold;font-stretch:condensed;font-size:82.7194px;font-family:'Avenir Next Condensed';-inkscape-font-specification:'Avenir Next Condensed,  Bold Condensed';fill:#ffab00;stroke-width:0.70344"
       aria-label="I" />
    <path
       d="m 436.25642,46.613446 q 0,6.617552 -1.48895,11.994313 -1.40623,5.376761 -4.38413,9.181853 -2.9779,3.805093 -7.61018,5.873078 -4.54957,2.067985 -10.83624,2.067985 H 395.47576 V 17.165341 h 16.46116 q 6.28667,0 10.83624,2.067985 4.63228,2.067985 7.61018,5.955796 2.9779,3.805093 4.38413,9.264573 1.48895,5.376761 1.48895,12.159751 z m -13.31782,0 q 0,-8.850975 -3.06062,-13.317823 -2.9779,-4.549567 -7.77562,-4.549567 h -3.22606 v 35.403903 h 3.22606 q 4.79772,0 7.77562,-4.466848 3.06062,-4.549566 3.06062,-13.069665 z"
       id="text18"
       style="font-weight:bold;font-stretch:condensed;font-size:82.7194px;font-family:'Avenir Next Condensed';-inkscape-font-specification:'Avenir Next Condensed,  Bold Condensed';fill:#ffab00;stroke-width:0.70344"
       aria-label="D" />
  </g>
</svg>
